# xmcd
#
# Track frame offsets:
#	150
#	13460
#	29537
#	45752
#	59648
#	71755
#	86490
#	100354
#	116109
#	130617
#	144838
#	158225
#
# Disc length: 2351 seconds
#
# Revision: 1
# Processed by: cddbd v1.5.2PL0 Copyright (c) Steve Scherf et al.
# Submitted via: EasyCDDAExtractor 7.0.3.1
#
DISCID=a4092d0c
DTITLE=Various Artist - Hits (Disc-3)
DYEAR=1900
DGENRE=Country
TTITLE0=Barbara Mandrell - Fooled by a Feeling
TTITLE1=Barbara Mandrell - Crossword Puzzle
TTITLE2=Barbara Mandrell - Fast Lanes and Country Roads
TTITLE3=Barbara Mandrell and Lee Greenwood - It Should Have Been Love By Now
TTITLE4=Barbara Mandrell - That's What Friends Are For
TTITLE5=Barbara Mandrell - Angel In Your Arms
TTITLE6=Barbara Mandrell - Sometime, Somewhere, Somehow
TTITLE7=Barbara Mandrell - After the Lovin'
TTITLE8=Barbara Mandrell and Lee Greenwood - To Me
TTITLE9=Barbara Mandrell - No One Mends A Broken Heart Like You
TTITLE10=Barbara Mandrell - Just Like Old Times
TTITLE11=Barbara Mandrell - From Our House to Yours
EXTD=
EXTT0=
EXTT1=
EXTT2=
EXTT3=
EXTT4=
EXTT5=
EXTT6=
EXTT7=
EXTT8=
EXTT9=
EXTT10=
EXTT11=
PLAYORDER=
